REM DIRINDEX 1\2,1\3,1\4,1\5
REM DIRNAME folder01,folder02,folder03,folder04,folder05
TITLE ""
FILE "1Q_t_0592-0601.mp3" MP3
  TRACK 01 AUDIO
    TITLE "3:cjc004_2678"
    INDEX 01 00:00:00
  TRACK 02 AUDIO
    TITLE "0:"
    INDEX 01 00:01:07
  TRACK 03 AUDIO
    TITLE "4:cjc004_2679"
    INDEX 01 00:01:38
  TRACK 04 AUDIO
    TITLE "0:"
    INDEX 01 00:03:00
  TRACK 05 AUDIO
    TITLE "5:cjc004_2680"
    INDEX 01 00:03:29
  TRACK 06 AUDIO
    TITLE "0:"
    INDEX 01 00:08:40
  TRACK 07 AUDIO
    TITLE "3:cjc004_2681"
    INDEX 01 00:09:18
  TRACK 08 AUDIO
    TITLE "0:"
    INDEX 01 00:10:39
  TRACK 09 AUDIO
    TITLE "4:cjc004_2682"
    INDEX 01 00:10:66
  TRACK 10 AUDIO
    TITLE "0:"
    INDEX 01 00:12:42
  TRACK 11 AUDIO
    TITLE "5:cjc004_2683"
    INDEX 01 00:12:67
  TRACK 12 AUDIO
    TITLE "0:"
    INDEX 01 00:17:31
  TRACK 13 AUDIO
    TITLE "3:cjc004_2684"
    INDEX 01 00:18:13
  TRACK 14 AUDIO
    TITLE "0:"
    INDEX 01 00:19:38
  TRACK 15 AUDIO
    TITLE "4:cjc004_2685"
    INDEX 01 00:19:71
  TRACK 16 AUDIO
    TITLE "0:"
    INDEX 01 00:21:13
  TRACK 17 AUDIO
    TITLE "5:cjc004_2686"
    INDEX 01 00:21:47
  TRACK 18 AUDIO
    TITLE "0:"
    INDEX 01 00:25:50
  TRACK 19 AUDIO
    TITLE "3:cjc004_2687"
    INDEX 01 00:26:30
  TRACK 20 AUDIO
    TITLE "0:"
    INDEX 01 00:27:47
  TRACK 21 AUDIO
    TITLE "4:cjc004_2688"
    INDEX 01 00:28:06
  TRACK 22 AUDIO
    TITLE "0:"
    INDEX 01 00:29:15
  TRACK 23 AUDIO
    TITLE "5:cjc004_2689"
    INDEX 01 00:29:42
  TRACK 24 AUDIO
    TITLE "0:"
    INDEX 01 00:34:18
  TRACK 25 AUDIO
    TITLE "3:cjc004_2690"
    INDEX 01 00:34:73
  TRACK 26 AUDIO
    TITLE "0:"
    INDEX 01 00:36:27
  TRACK 27 AUDIO
    TITLE "4:cjc004_2691"
    INDEX 01 00:36:56
  TRACK 28 AUDIO
    TITLE "0:"
    INDEX 01 00:38:06
  TRACK 29 AUDIO
    TITLE "5:cjc004_2692"
    INDEX 01 00:38:31
  TRACK 30 AUDIO
    TITLE "0:"
    INDEX 01 00:42:08
  TRACK 31 AUDIO
    TITLE "3:cjc004_2693"
    INDEX 01 00:42:63
  TRACK 32 AUDIO
    TITLE "0:"
    INDEX 01 00:44:05
  TRACK 33 AUDIO
    TITLE "4:cjc004_2694"
    INDEX 01 00:44:36
  TRACK 34 AUDIO
    TITLE "0:"
    INDEX 01 00:45:51
  TRACK 35 AUDIO
    TITLE "5:cjc004_2695"
    INDEX 01 00:46:06
  TRACK 36 AUDIO
    TITLE "0:"
    INDEX 01 00:50:52
  TRACK 37 AUDIO
    TITLE "3:cjc004_2696"
    INDEX 01 00:51:30
  TRACK 38 AUDIO
    TITLE "0:"
    INDEX 01 00:52:63
  TRACK 39 AUDIO
    TITLE "4:cjc004_2697"
    INDEX 01 00:53:17
  TRACK 40 AUDIO
    TITLE "0:"
    INDEX 01 00:54:54
  TRACK 41 AUDIO
    TITLE "5:cjc004_2698"
    INDEX 01 00:55:04
  TRACK 42 AUDIO
    TITLE "0:"
    INDEX 01 00:59:51
  TRACK 43 AUDIO
    TITLE "3:cjc004_2699"
    INDEX 01 01:00:23
  TRACK 44 AUDIO
    TITLE "0:"
    INDEX 01 01:01:48
  TRACK 45 AUDIO
    TITLE "4:cjc004_2700"
    INDEX 01 01:01:74
  TRACK 46 AUDIO
    TITLE "0:"
    INDEX 01 01:03:35
  TRACK 47 AUDIO
    TITLE "5:cjc004_2701"
    INDEX 01 01:03:71
  TRACK 48 AUDIO
    TITLE "0:"
    INDEX 01 01:08:54
  TRACK 49 AUDIO
    TITLE "3:cjc004_2702"
    INDEX 01 01:09:28
  TRACK 50 AUDIO
    TITLE "0:"
    INDEX 01 01:10:45
  TRACK 51 AUDIO
    TITLE "4:cjc004_2703"
    INDEX 01 01:10:73
  TRACK 52 AUDIO
    TITLE "0:"
    INDEX 01 01:12:17
  TRACK 53 AUDIO
    TITLE "5:cjc004_2704"
    INDEX 01 01:12:44
  TRACK 54 AUDIO
    TITLE "0:"
    INDEX 01 01:16:61
  TRACK 55 AUDIO
    TITLE "3:cjc004_2705"
    INDEX 01 01:17:43
  TRACK 56 AUDIO
    TITLE "0:"
    INDEX 01 01:18:56
  TRACK 57 AUDIO
    TITLE "4:cjc004_2706"
    INDEX 01 01:19:11
  TRACK 58 AUDIO
    TITLE "0:"
    INDEX 01 01:21:20
  TRACK 59 AUDIO
    TITLE "5:cjc004_2707"
    INDEX 01 01:21:49
  TRACK 60 AUDIO
    TITLE "0:"
    INDEX 01 01:27:16
